<?xml version="1.0" encoding="UTF-8" standalone="no"?>
<svg width="105" height="67" viewBox="0 0 105 67" fill="none" xmlns="http://www.w3.org/2000/svg">
<path d="M19.2921 63.5747L19.2921 63.5746L19.2826 63.574C16.9771 63.4241 14.8189 62.601 12.9503 61.1699L12.9448 61.1657L5.67401 55.6906C5.67353 55.6903 5.67305 55.6899 5.67258 55.6896C1.11633 52.2261 -0.452662 45.895 2.0108 40.7036C2.01089 40.7034 2.01099 40.7032 2.01108 40.703L17.6773 7.75932L17.6773 7.75928C19.3948 4.14719 22.8323 1.58723 26.7889 0.985394C30.7359 0.385022 34.6914 1.80735 37.4632 4.82601C37.4638 4.82658 37.4643 4.82716 37.4648 4.82774L66.0746 36.3966C66.0747 36.3967 66.0749 36.3969 66.075 36.397C68.9881 39.634 69.9604 44.2294 68.616 48.3708C68.6159 48.3713 68.6157 48.3718 68.6155 48.3723L65.5021 57.785C65.5016 57.7862 65.5012 57.7874 65.5008 57.7887C63.7765 62.8453 59.1408 66.1497 53.9975 66.1497H53.9956H53.9938H53.9919H53.99H53.9881H53.9863H53.9844H53.9825H53.9806H53.9788H53.9769H53.975H53.9731H53.9713H53.9694H53.9675H53.9657H53.9638H53.9619H53.96H53.9582H53.9563H53.9544H53.9525H53.9507H53.9488H53.9469H53.945H53.9432H53.9413H53.9394H53.9376H53.9357H53.9338H53.9319H53.9301H53.9282H53.9263H53.9244H53.9226H53.9207H53.9188H53.917H53.9151H53.9132H53.9113H53.9095H53.9076H53.9057H53.9038H53.902H53.9001H53.8982H53.8963H53.8945H53.8926H53.8907H53.8888H53.887H53.8851H53.8832H53.8814H53.8795H53.8776H53.8757H53.8739H53.872H53.8701H53.8682H53.8664H53.8645H53.8626H53.8607H53.8589H53.857H53.8551H53.8533H53.8514H53.8495H53.8476H53.8458H53.8439H53.842H53.8401H53.8383H53.8364H53.8345H53.8326H53.8308H53.8289H53.827H53.8252H53.8233H53.8214H53.8195H53.8177H53.8158H53.8139H53.812H53.8102H53.8083H53.8064H53.8045H53.8027H53.8008H53.7989H53.7971H53.7952H53.7933H53.7914H53.7896H53.7877H53.7858H53.7839H53.7821H53.7802H53.7783H53.7764H53.7746H53.7727H53.7708H53.769H53.7671H53.7652H53.7633H53.7615H53.7596H53.7577H53.7558H53.754H53.7521H53.7502H53.7483H53.7465H53.7446H53.7427H53.7409H53.739H53.7371H53.7352H53.7334H53.7315H53.7296H53.7277H53.7259H53.724H53.7221H53.7202H53.7184H53.7165H53.7146H53.7127H53.7109H53.709H53.7071H53.7053H53.7034H53.7015H53.6996H53.6978H53.6959H53.694H53.6921H53.6903H53.6884H53.6865H53.6847H53.6828H53.6809H53.679H53.6772H53.6753H53.6734H53.6715H53.6697H53.6678H53.6659H53.664H53.6622H53.6603H53.6584H53.6565H53.6547H53.6528H53.6509H53.6491H53.6472H53.6453H53.6434H53.6416H53.6397H53.6378H53.6359H53.6341H53.6322H53.6303H53.6284H53.6266H53.6247H53.6228H53.621H53.6191H53.6172H53.6153H53.6135H53.6116H53.6097H53.6078H53.606H53.6041H53.6022H53.6003H53.5985H53.5966H53.5947H53.5929H53.591H53.5891H53.5872H53.5854H53.5835H53.5816H53.5797H53.5779H53.576H53.5741H53.5722H53.5704H53.5685H53.5666H53.5648H53.5629H53.561H53.5591H53.5573H53.5554H53.5535H53.5516H53.5498H53.5479H53.546H53.5441H53.5423H53.5404H53.5385H53.5367H53.5348H53.5329H53.531H53.5292H53.5273H53.5254H53.5235H53.5217H53.5198H53.5179H53.516H53.5142H53.5123H53.5104H53.5086H53.5067H53.5048H53.5029H53.5011H53.4992H53.4973H53.4954H53.4936H53.4917H53.4898H53.4879H53.4861H53.4842H53.4823H53.4804H53.4786H53.4767H53.4748H53.473H53.4711H53.4692H53.4673H53.4655H53.4636H53.4617H53.4598H53.458H53.4561H53.4542H53.4524H53.4505H53.4486H53.4467H53.4449H53.443H53.4411H53.4392H53.4374H53.4355H53.4336H53.4317H53.4299H53.428H53.4261H53.4242H53.4224H53.4205H53.4186H53.4168H53.4149H53.413H53.4111H53.4093H53.4074H53.4055H53.4036H53.4018H53.3999H53.398H53.3961H53.3943H53.3924H53.3905H53.3887H53.3868H53.3849H53.383H53.3812H53.3793H53.3774H53.3755H53.3737H53.3718H53.3699H53.368H53.3662H53.3643H53.3624H53.3606H53.3587H53.3568H53.3549H53.3531H53.3512H53.3493H53.3474H53.3456H53.3437H53.3418H53.3399H53.3381H53.3362H53.3343H53.3325H53.3306H53.3287H53.3268H53.325H53.3231H53.3212H53.3193H53.3175H53.3156H53.3137H53.3118H53.31H53.3081H53.3062H53.3044H53.3025H53.3006H53.2987H53.2969H53.295H53.2931H53.2912H53.2894H53.2875H53.2856H53.2837H53.2819H53.28H53.2781H53.2763H53.2744H53.2725H53.2706H53.2688H53.2669H53.265H53.2631H53.2613H53.2594H53.2575H53.2556H53.2538H53.2519H53.25H53.2482H53.2463H53.2444H53.2425H53.2407H53.2388H53.2369H53.235H53.2332H53.2313H53.2294H53.2275H53.2257H53.2238H53.2219H53.2201H53.2182H53.2163H53.2144H53.2126H53.2107H53.2088H53.2069H53.2051H53.2032H53.2013H53.1994H53.1976H53.1957H53.1938H53.192H53.1901H53.1882H53.1863H53.1845H53.1826H53.1807H53.1788H53.177H53.1751H53.1732H53.1713H53.1695H53.1676H53.1657H53.1638H53.162H53.1601H53.1582H53.1564H53.1545H53.1526H53.1507H53.1489H53.147H53.1451H53.1432H53.1414H53.1395H53.1376H53.1357H53.1339H53.132H53.1301H53.1283H53.1264H53.1245H53.1226H53.1208H53.1189H53.117H53.1151H53.1133H53.1114H53.1095H53.1076H53.1058H53.1039H53.102H53.1002H53.0983H53.0964H53.0945H53.0927H53.0908H53.0889H53.087H53.0852H53.0833H53.0814H53.0795H53.0777H53.0758H53.0739H53.0721H53.0702L19.2921 63.5747ZM7.91776 52.4498L7.91773 52.4499L7.92409 52.4547L15.2778 58.0125L15.2857 58.0185L15.2937 58.0243C16.5132 58.9021 18.0207 59.5388 19.5693 59.6324L53.3734 62.2094L53.3769 62.2097C57.1185 62.479 60.5182 60.2295 61.6799 56.6312C61.6802 56.6304 61.6805 56.6295 61.6808 56.6286L64.7962 47.2105L64.7987 47.2027C65.6862 44.4302 65.0718 41.2918 63.1007 39.1236C63.1002 39.1231 63.0997 39.1225 63.0992 39.122L34.5663 7.46926L34.5604 7.46265L34.5543 7.45617C32.9544 5.75442 30.8117 4.8524 28.5794 4.8524L28.556 4.85239C28.1754 4.85236 27.7907 4.85232 27.3202 4.94418C24.6439 5.31311 22.3318 7.02447 21.1753 9.53019L5.51312 42.3848C5.51278 42.3856 5.51244 42.3863 5.5121 42.387C3.81537 45.8992 4.88981 50.1165 7.91776 52.4498Z" fill="#E300A3" stroke="black" stroke-width="1.70051"/>
<path d="M35.4508 32.3097C35.302 32.3097 35.168 32.2576 35.049 32.1534C34.9448 32.0344 34.8927 31.9004 34.8927 31.7516V17.2412C34.8927 17.0775 34.9448 16.9435 35.049 16.8393C35.168 16.7352 35.302 16.6831 35.4508 16.6831H38.3975C38.5612 16.6831 38.6952 16.7352 38.7994 16.8393C38.9035 16.9435 38.9556 17.0775 38.9556 17.2412V28.9388H45.7197C45.8834 28.9388 46.0174 28.9984 46.1216 29.1174C46.2257 29.2216 46.2778 29.3555 46.2778 29.5192V31.7516C46.2778 31.9004 46.2257 32.0344 46.1216 32.1534C46.0174 32.2576 45.8834 32.3097 45.7197 32.3097H35.4508Z" fill="white"/>
<path d="M51.4498 32.533C50.661 32.533 49.9392 32.3841 49.2844 32.0865C48.6444 31.7739 48.1384 31.3572 47.7664 30.8363C47.4092 30.3006 47.2306 29.7127 47.2306 29.0728C47.2306 28.0459 47.6473 27.2199 48.4807 26.5948C49.329 25.9698 50.4899 25.5382 51.9632 25.3001L54.7537 24.8759V24.5634C54.7537 23.9978 54.6346 23.5811 54.3965 23.3132C54.1584 23.0454 53.7566 22.9114 53.191 22.9114C52.8487 22.9114 52.566 22.9709 52.3427 23.09C52.1195 23.2091 51.8888 23.3728 51.6507 23.5811C51.4423 23.7597 51.2861 23.8788 51.1819 23.9383C51.1373 24.0574 51.0554 24.1169 50.9363 24.1169H48.503C48.3542 24.1169 48.2277 24.0722 48.1235 23.9829C48.0342 23.8788 47.997 23.7597 48.0119 23.6258C48.0268 23.2239 48.2203 22.7775 48.5923 22.2863C48.9793 21.7952 49.5597 21.3711 50.3336 21.0139C51.1224 20.6567 52.0897 20.4781 53.2357 20.4781C55.0662 20.4781 56.4205 20.8874 57.2986 21.7059C58.1767 22.5096 58.6157 23.596 58.6157 24.9652V31.7516C58.6157 31.9004 58.5636 32.0344 58.4594 32.1534C58.3553 32.2576 58.2213 32.3097 58.0576 32.3097H55.4681C55.3192 32.3097 55.1853 32.2576 55.0662 32.1534C54.9621 32.0344 54.91 31.9004 54.91 31.7516V30.9703C54.5826 31.4316 54.1212 31.8111 53.5259 32.1088C52.9455 32.3916 52.2534 32.533 51.4498 32.533ZM52.499 29.988C53.1836 29.988 53.7343 29.7648 54.151 29.3183C54.5826 28.8719 54.7984 28.217 54.7984 27.3538V27.0413L52.9008 27.3762C51.5614 27.6143 50.8917 28.0831 50.8917 28.7826C50.8917 29.1546 51.048 29.4523 51.3605 29.6755C51.673 29.8839 52.0525 29.988 52.499 29.988Z" fill="white"/>
<path d="M61.6929 32.3097C61.5292 32.3097 61.3953 32.2576 61.2911 32.1534C61.1869 32.0493 61.1348 31.9153 61.1348 31.7516V21.2594C61.1348 21.0957 61.1869 20.9618 61.2911 20.8576C61.3953 20.7534 61.5292 20.7014 61.6929 20.7014H64.2601C64.4239 20.7014 64.5578 20.7534 64.662 20.8576C64.781 20.9618 64.8406 21.0957 64.8406 21.2594V22.1078C65.2424 21.6166 65.7558 21.2222 66.3809 20.9246C67.0208 20.6269 67.7427 20.4781 68.5463 20.4781C69.856 20.4781 70.9201 20.9246 71.7386 21.8175C72.5571 22.6956 72.9664 23.9309 72.9664 25.5233V31.7516C72.9664 31.9004 72.9143 32.0344 72.8101 32.1534C72.706 32.2576 72.572 32.3097 72.4083 32.3097H69.5955C69.4467 32.3097 69.3128 32.2576 69.1937 32.1534C69.0895 32.0344 69.0374 31.9004 69.0374 31.7516V25.6572C69.0374 24.9578 68.8663 24.422 68.524 24.0499C68.1817 23.663 67.6906 23.4695 67.0506 23.4695C66.4255 23.4695 65.9344 23.663 65.5772 24.0499C65.2201 24.422 65.0415 24.9578 65.0415 25.6572V31.7516C65.0415 31.9004 64.9894 32.0344 64.8852 32.1534C64.781 32.2576 64.6471 32.3097 64.4834 32.3097H61.6929Z" fill="white"/>
<path d="M79.8104 32.533C78.3519 32.533 77.2134 32.079 76.3949 31.1712C75.5912 30.2485 75.1522 28.9537 75.0778 27.2869L75.0554 26.5055L75.0778 25.7019C75.1373 24.0946 75.5763 22.8221 76.3949 21.8845C77.2283 20.9469 78.3668 20.4781 79.8104 20.4781C81.1647 20.4781 82.2586 20.9172 83.092 21.7952V17.0179C83.092 16.8542 83.1441 16.7203 83.2483 16.6161C83.3524 16.5119 83.4864 16.4598 83.6501 16.4598H86.3736C86.5373 16.4598 86.6712 16.5119 86.7754 16.6161C86.8796 16.7203 86.9317 16.8542 86.9317 17.0179V31.7516C86.9317 31.9004 86.8796 32.0344 86.7754 32.1534C86.6712 32.2576 86.5373 32.3097 86.3736 32.3097H83.851C83.7022 32.3097 83.5682 32.2576 83.4492 32.1534C83.345 32.0344 83.2929 31.9004 83.2929 31.7516V31.0373C82.4744 32.0344 81.3135 32.533 79.8104 32.533ZM81.0382 29.5416C81.7079 29.5416 82.2065 29.3332 82.5339 28.9165C82.8613 28.4849 83.0473 27.9343 83.092 27.2645C83.1069 27.0711 83.1143 26.7883 83.1143 26.4162C83.1143 26.0591 83.1069 25.7837 83.092 25.5903C83.0622 24.9801 82.8762 24.4741 82.5339 24.0722C82.1916 23.6704 81.693 23.4695 81.0382 23.4695C80.3387 23.4695 79.8327 23.6779 79.5202 24.0946C79.2225 24.5113 79.0514 25.0843 79.0067 25.8135C78.9919 25.9623 78.9844 26.193 78.9844 26.5055C78.9844 26.8181 78.9919 27.0487 79.0067 27.1976C79.0514 27.9268 79.2225 28.4998 79.5202 28.9165C79.8327 29.3332 80.3387 29.5416 81.0382 29.5416Z" fill="white"/>
<path d="M95.0544 32.533C93.209 32.533 91.7877 32.0939 90.7905 31.2158C89.7934 30.3378 89.2502 29.1025 89.1609 27.5101C89.146 27.3166 89.1386 26.9818 89.1386 26.5055C89.1386 26.0293 89.146 25.6944 89.1609 25.501C89.2502 23.9234 89.8083 22.6956 90.8352 21.8175C91.8621 20.9246 93.2685 20.4781 95.0544 20.4781C96.8552 20.4781 98.269 20.9246 99.2959 21.8175C100.323 22.6956 100.881 23.9234 100.97 25.501C100.985 25.6944 100.993 26.0293 100.993 26.5055C100.993 26.9818 100.985 27.3166 100.97 27.5101C100.881 29.1025 100.338 30.3378 99.3406 31.2158C98.3434 32.0939 96.9147 32.533 95.0544 32.533ZM95.0544 29.8095C95.7092 29.8095 96.1929 29.616 96.5054 29.229C96.818 28.8272 96.9966 28.217 97.0412 27.3985C97.0561 27.2497 97.0635 26.952 97.0635 26.5055C97.0635 26.0591 97.0561 25.7614 97.0412 25.6126C96.9966 24.8089 96.8105 24.2062 96.4831 23.8044C96.1706 23.4025 95.6943 23.2016 95.0544 23.2016C93.8191 23.2016 93.1643 24.0053 93.0899 25.6126L93.0676 26.5055L93.0899 27.3985C93.1197 28.217 93.2908 28.8272 93.6033 29.229C93.9308 29.616 94.4144 29.8095 95.0544 29.8095Z" fill="white"/>
<path d="M35.4508 52.7158C35.302 52.7158 35.168 52.6637 35.049 52.5595C34.9448 52.4405 34.8927 52.3065 34.8927 52.1577V37.6473C34.8927 37.4836 34.9448 37.3496 35.049 37.2454C35.168 37.1413 35.302 37.0892 35.4508 37.0892H41.255C43.4427 37.0892 45.1393 37.6101 46.3448 38.6518C47.5503 39.6936 48.1828 41.2042 48.2423 43.1836C48.2572 43.6151 48.2646 44.1881 48.2646 44.9025C48.2646 45.6168 48.2572 46.1824 48.2423 46.5991C48.1679 48.6678 47.5503 50.2081 46.3894 51.2201C45.2435 52.2172 43.5692 52.7158 41.3666 52.7158H35.4508ZM41.255 49.5012C42.2372 49.5012 42.959 49.2705 43.4204 48.8091C43.8817 48.3329 44.1273 47.5813 44.1571 46.5544C44.1868 46.1229 44.2017 45.5648 44.2017 44.8802C44.2017 44.1956 44.1868 43.6449 44.1571 43.2282C44.1273 42.2311 43.8594 41.4944 43.3534 41.0182C42.8623 40.5419 42.1256 40.3038 41.1434 40.3038H38.911V49.5012H41.255Z" fill="white"/>
<path d="M51.1627 39.4332C50.999 39.4332 50.8651 39.3811 50.7609 39.2769C50.6567 39.1727 50.6046 39.0388 50.6046 38.8751V36.8659C50.6046 36.7022 50.6567 36.5683 50.7609 36.4641C50.8651 36.3599 50.999 36.3078 51.1627 36.3078H53.8416C54.0053 36.3078 54.1392 36.3599 54.2434 36.4641C54.3476 36.5683 54.3997 36.7022 54.3997 36.8659V38.8751C54.3997 39.0388 54.3476 39.1727 54.2434 39.2769C54.1392 39.3811 54.0053 39.4332 53.8416 39.4332H51.1627ZM51.185 52.7158C51.0213 52.7158 50.8874 52.6637 50.7832 52.5595C50.679 52.4554 50.6269 52.3214 50.6269 52.1577V41.6655C50.6269 41.5018 50.679 41.3679 50.7832 41.2637C50.8874 41.1595 51.0213 41.1074 51.185 41.1074H53.8192C53.983 41.1074 54.1169 41.1595 54.2211 41.2637C54.3253 41.3679 54.3773 41.5018 54.3773 41.6655V52.1577C54.3773 52.3065 54.3253 52.4405 54.2211 52.5595C54.1169 52.6637 53.983 52.7158 53.8192 52.7158H51.185Z" fill="white"/>
<path d="M62.7071 57.627C61.2932 57.627 60.1473 57.3964 59.2692 56.935C58.3911 56.4736 57.7586 55.9453 57.3717 55.35C56.9996 54.7547 56.8136 54.2561 56.8136 53.8543C56.8136 53.7204 56.8731 53.6013 56.9922 53.4971C57.1112 53.393 57.2452 53.3409 57.394 53.3409H60.2291C60.378 53.3409 60.4896 53.3706 60.564 53.4302C60.6533 53.5046 60.7351 53.6236 60.8095 53.7873C60.9584 54.1296 61.1593 54.3975 61.4123 54.591C61.6653 54.7994 62.0597 54.9035 62.5955 54.9035C63.28 54.9035 63.7861 54.7324 64.1135 54.3901C64.4409 54.0627 64.6046 53.5046 64.6046 52.7158V51.2201C63.8456 52.0535 62.7592 52.4702 61.3453 52.4702C59.8422 52.4702 58.6888 52.0312 57.8851 51.1531C57.0964 50.2602 56.6648 48.9729 56.5904 47.2911L56.568 46.6884C56.568 44.8876 56.9699 43.4738 57.7735 42.4469C58.5772 41.4051 59.7678 40.8842 61.3453 40.8842C62.1043 40.8842 62.774 41.033 63.3545 41.3307C63.9349 41.6135 64.426 42.0004 64.8278 42.4915V41.6655C64.8278 41.5018 64.8799 41.3679 64.9841 41.2637C65.1032 41.1595 65.2371 41.1074 65.3859 41.1074H67.9532C68.1169 41.1074 68.2508 41.167 68.355 41.286C68.474 41.3902 68.5336 41.5167 68.5336 41.6655V52.4033C68.5336 54.0999 68.0276 55.3947 67.0156 56.2876C66.0035 57.1806 64.5674 57.627 62.7071 57.627ZM62.5508 49.5682C63.2205 49.5682 63.7191 49.3672 64.0465 48.9654C64.3739 48.5487 64.5599 48.0278 64.6046 47.4027C64.6195 47.2986 64.6269 47.0679 64.6269 46.7107C64.6269 46.3684 64.6195 46.1452 64.6046 46.041C64.5748 45.4159 64.3888 44.9025 64.0465 44.5007C63.7191 44.0839 63.2205 43.8756 62.5508 43.8756C61.8513 43.8756 61.3453 44.0839 61.0328 44.5007C60.7203 44.9174 60.5491 45.4903 60.5193 46.2196L60.497 46.7107C60.497 47.5888 60.6458 48.2883 60.9435 48.8091C61.2411 49.3152 61.7769 49.5682 62.5508 49.5682Z" fill="white"/>
<path d="M71.6988 39.4332C71.5351 39.4332 71.4012 39.3811 71.297 39.2769C71.1928 39.1727 71.1407 39.0388 71.1407 38.8751V36.8659C71.1407 36.7022 71.1928 36.5683 71.297 36.4641C71.4012 36.3599 71.5351 36.3078 71.6988 36.3078H74.3777C74.5414 36.3078 74.6753 36.3599 74.7795 36.4641C74.8837 36.5683 74.9358 36.7022 74.9358 36.8659V38.8751C74.9358 39.0388 74.8837 39.1727 74.7795 39.2769C74.6753 39.3811 74.5414 39.4332 74.3777 39.4332H71.6988ZM71.7212 52.7158C71.5575 52.7158 71.4235 52.6637 71.3193 52.5595C71.2152 52.4554 71.1631 52.3214 71.1631 52.1577V41.6655C71.1631 41.5018 71.2152 41.3679 71.3193 41.2637C71.4235 41.1595 71.5575 41.1074 71.7212 41.1074H74.3554C74.5191 41.1074 74.653 41.1595 74.7572 41.2637C74.8614 41.3679 74.9135 41.5018 74.9135 41.6655V52.1577C74.9135 52.3065 74.8614 52.4405 74.7572 52.5595C74.653 52.6637 74.5191 52.7158 74.3554 52.7158H71.7212Z" fill="white"/>
<path d="M83.4888 52.7158C80.4081 52.7158 78.8677 51.2499 78.8677 48.318V44.0319H77.1265C76.9628 44.0319 76.8214 43.9798 76.7023 43.8756C76.5982 43.7714 76.5461 43.6375 76.5461 43.4738V41.6655C76.5461 41.5018 76.5982 41.3679 76.7023 41.2637C76.8214 41.1595 76.9628 41.1074 77.1265 41.1074H78.8677V37.424C78.8677 37.2603 78.9198 37.1264 79.024 37.0222C79.1431 36.918 79.277 36.8659 79.4258 36.8659H82.0154C82.1791 36.8659 82.313 36.918 82.4172 37.0222C82.5214 37.1264 82.5735 37.2603 82.5735 37.424V41.1074H85.364C85.5277 41.1074 85.6616 41.1595 85.7658 41.2637C85.8848 41.3679 85.9444 41.5018 85.9444 41.6655V43.4738C85.9444 43.6375 85.8848 43.7714 85.7658 43.8756C85.6616 43.9798 85.5277 44.0319 85.364 44.0319H82.5735V48.0055C82.5735 49.1068 82.9976 49.6574 83.8459 49.6574H85.5649C85.7286 49.6574 85.8625 49.7095 85.9667 49.8137C86.0709 49.9179 86.123 50.0518 86.123 50.2155V52.1577C86.123 52.3065 86.0709 52.4405 85.9667 52.5595C85.8625 52.6637 85.7286 52.7158 85.5649 52.7158H83.4888Z" fill="white"/>
<path d="M91.4538 52.939C90.665 52.939 89.9432 52.7902 89.2884 52.4926C88.6485 52.18 88.1424 51.7633 87.7704 51.2424C87.4132 50.7067 87.2346 50.1188 87.2346 49.4789C87.2346 48.452 87.6513 47.626 88.4847 47.0009C89.333 46.3759 90.4939 45.9443 91.9673 45.7061L94.7577 45.282V44.9695C94.7577 44.4039 94.6387 43.9872 94.4005 43.7193C94.1624 43.4514 93.7606 43.3175 93.1951 43.3175C92.8528 43.3175 92.57 43.377 92.3468 43.4961C92.1235 43.6151 91.8928 43.7789 91.6547 43.9872C91.4464 44.1658 91.2901 44.2849 91.1859 44.3444C91.1413 44.4635 91.0594 44.523 90.9404 44.523H88.5071C88.3582 44.523 88.2317 44.4783 88.1276 44.389C88.0383 44.2849 88.0011 44.1658 88.0159 44.0319C88.0308 43.63 88.2243 43.1836 88.5964 42.6924C88.9833 42.2013 89.5637 41.7772 90.3376 41.42C91.1264 41.0628 92.0938 40.8842 93.2397 40.8842C95.0703 40.8842 96.4246 41.2935 97.3026 42.112C98.1807 42.9157 98.6197 44.0021 98.6197 45.3713V52.1577C98.6197 52.3065 98.5676 52.4405 98.4635 52.5595C98.3593 52.6637 98.2253 52.7158 98.0616 52.7158H95.4721C95.3233 52.7158 95.1893 52.6637 95.0703 52.5595C94.9661 52.4405 94.914 52.3065 94.914 52.1577V51.3764C94.5866 51.8377 94.1252 52.2172 93.5299 52.5149C92.9495 52.7977 92.2575 52.939 91.4538 52.939ZM92.503 50.3941C93.1876 50.3941 93.7383 50.1709 94.155 49.7244C94.5866 49.2779 94.8024 48.6231 94.8024 47.7599V47.4474L92.9048 47.7823C91.5654 48.0204 90.8957 48.4892 90.8957 49.1886C90.8957 49.5607 91.052 49.8584 91.3645 50.0816C91.677 50.29 92.0565 50.3941 92.503 50.3941Z" fill="white"/>
<path d="M101.697 52.7158C101.548 52.7158 101.414 52.6637 101.295 52.5595C101.191 52.4405 101.139 52.3065 101.139 52.1577V37.424C101.139 37.2603 101.191 37.1264 101.295 37.0222C101.414 36.918 101.548 36.8659 101.697 36.8659H104.331C104.495 36.8659 104.629 36.918 104.733 37.0222C104.837 37.1264 104.889 37.2603 104.889 37.424V52.1577C104.889 52.3214 104.837 52.4554 104.733 52.5595C104.629 52.6637 104.495 52.7158 104.331 52.7158H101.697Z" fill="white"/>
</svg>
