<?xml version="1.0" encoding="UTF-8" standalone="no"?>
<svg width="36" height="36" viewBox="0 0 36 36" fill="none" xmlns="http://www.w3.org/2000/svg">
<path fill-rule="evenodd" clip-rule="evenodd" d="M6.54545 0C4.80949 0 3.14463 0.689609 1.91712 1.91712C0.689609 3.14463 0 4.80949 0 6.54545V29.4545C0 31.1905 0.689609 32.8554 1.91712 34.0829C3.14463 35.3104 4.80949 36 6.54545 36H29.4545C31.1905 36 32.8554 35.3104 34.0829 34.0829C35.3104 32.8554 36 31.1905 36 29.4545V6.54545C36 4.80949 35.3104 3.14463 34.0829 1.91712C32.8554 0.689609 31.1905 0 29.4545 0H6.54545ZM22.8453 8.63182C22.9116 8.4232 22.9354 8.20339 22.9153 7.9854C22.8952 7.76741 22.8315 7.55568 22.7281 7.36274C22.6247 7.1698 22.4836 6.99957 22.3132 6.86213C22.1428 6.7247 21.9465 6.62285 21.7361 6.56263C21.5256 6.5024 21.3052 6.48501 21.0879 6.5115C20.8706 6.53799 20.6608 6.60781 20.471 6.71683C20.2811 6.82586 20.1151 6.97186 19.9827 7.1462C19.8503 7.32054 19.7542 7.51968 19.7002 7.73182L13.1547 27.3682C13.0884 27.5768 13.0646 27.7966 13.0847 28.0146C13.1048 28.2326 13.1685 28.4443 13.2719 28.6373C13.3753 28.8302 13.5164 29.0004 13.6868 29.1379C13.8572 29.2753 14.0535 29.3771 14.2639 29.4374C14.4744 29.4976 14.6948 29.515 14.9121 29.4885C15.1294 29.462 15.3392 29.3922 15.529 29.2832C15.7189 29.1741 15.8849 29.0281 16.0173 28.8538C16.1497 28.6795 16.2458 28.4803 16.2998 28.2682L22.8453 8.63182V8.63182ZM10.9751 14.2478C11.2732 13.9392 11.4381 13.5258 11.4344 13.0968C11.4306 12.6677 11.2586 12.2573 10.9552 11.9539C10.6518 11.6505 10.2413 11.4784 9.81229 11.4747C9.38324 11.471 8.96989 11.6359 8.66127 11.934L3.75218 16.8431C3.44541 17.15 3.27308 17.5661 3.27308 18C3.27308 18.4339 3.44541 18.85 3.75218 19.1569L8.66127 24.066C8.96989 24.3641 9.38324 24.529 9.81229 24.5253C10.2413 24.5216 10.6518 24.3495 10.9552 24.0461C11.2586 23.7427 11.4306 23.3323 11.4344 22.9032C11.4381 22.4742 11.2732 22.0608 10.9751 21.7522L7.22291 18L10.9751 14.2478ZM27.3387 11.934C27.1878 11.7777 27.0072 11.653 26.8076 11.5673C26.6079 11.4815 26.3932 11.4364 26.1759 11.4345C25.9587 11.4326 25.7432 11.474 25.5421 11.5563C25.341 11.6386 25.1583 11.7601 25.0046 11.9137C24.851 12.0674 24.7295 12.2501 24.6472 12.4512C24.5649 12.6523 24.5235 12.8677 24.5254 13.085C24.5273 13.3023 24.5724 13.517 24.6582 13.7167C24.744 13.9163 24.8686 14.0969 25.0249 14.2478L28.7771 18L25.0249 21.7522C24.7268 22.0608 24.5619 22.4742 24.5656 22.9032C24.5694 23.3323 24.7414 23.7427 25.0448 24.0461C25.3482 24.3495 25.7587 24.5216 26.1877 24.5253C26.6168 24.529 27.0301 24.3641 27.3387 24.066L32.2478 19.1569C32.5546 18.85 32.7269 18.4339 32.7269 18C32.7269 17.5661 32.5546 17.15 32.2478 16.8431L27.3387 11.934V11.934Z" fill="white"/>
</svg>
