<?xml version="1.0" encoding="UTF-8" standalone="no"?>
<svg width="36" height="36" viewBox="0 0 36 36" fill="none" xmlns="http://www.w3.org/2000/svg">
<path d="M18 36C8.0586 36 0 27.9414 0 18C0 8.0586 8.0586 0 18 0C27.9414 0 36 8.0586 36 18C36 27.9414 27.9414 36 18 36ZM18 32.4C21.8191 32.4 25.4818 30.8829 28.1823 28.1823C30.8829 25.4818 32.4 21.8191 32.4 18C32.4 14.1809 30.8829 10.5182 28.1823 7.81766C25.4818 5.11714 21.8191 3.6 18 3.6C14.1809 3.6 10.5182 5.11714 7.81766 7.81766C5.11714 10.5182 3.6 14.1809 3.6 18C3.6 21.8191 5.11714 25.4818 7.81766 28.1823C10.5182 30.8829 14.1809 32.4 18 32.4V32.4ZM9 18H12.6C12.6 19.4322 13.1689 20.8057 14.1816 21.8184C15.1943 22.8311 16.5678 23.4 18 23.4C19.4322 23.4 20.8057 22.8311 21.8184 21.8184C22.8311 20.8057 23.4 19.4322 23.4 18H27C27 20.3869 26.0518 22.6761 24.364 24.364C22.6761 26.0518 20.3869 27 18 27C15.6131 27 13.3239 26.0518 11.636 24.364C9.94821 22.6761 9 20.3869 9 18V18Z" fill="white"/>
</svg>
