<?xml version="1.0" encoding="UTF-8" standalone="no"?>
<svg width="50" height="36" viewBox="0 0 50 36" fill="none" xmlns="http://www.w3.org/2000/svg">
<path d="M18.0243 13.6699L22.1266 17.7722L22.1404 17.7604L25 20.62L25.0118 20.6318L29.1909 24.8109C30.5682 26.1878 32.3227 27.1254 34.2328 27.5051C36.1429 27.8849 38.1227 27.6897 39.9218 26.9443C41.721 26.199 43.2588 24.9368 44.3406 23.3175C45.4225 21.6983 46 19.7945 46 17.8471C46 15.8996 45.4225 13.9959 44.3406 12.3766C43.2588 10.7573 41.721 9.49519 39.9218 8.74982C38.1227 8.00444 36.1429 7.80928 34.2328 8.18902C32.3227 8.56876 30.5682 9.50635 29.1909 10.8832L27.7848 12.2894L30.5715 15.0741L31.9757 13.6699C32.8019 12.8435 33.8546 12.2806 35.0008 12.0525C36.1469 11.8244 37.3349 11.9413 38.4146 12.3884C39.4943 12.8355 40.4172 13.5928 41.0665 14.5644C41.7157 15.5361 42.0623 16.6785 42.0623 17.8471C42.0623 19.0157 41.7157 20.1581 41.0665 21.1297C40.4172 22.1014 39.4943 22.8586 38.4146 23.3058C37.3349 23.7529 36.1469 23.8698 35.0008 23.6417C33.8546 23.4135 32.8019 22.8507 31.9757 22.0242L27.895 17.9436L27.8813 17.9554L20.8111 10.8852C19.434 9.50776 17.6795 8.56962 15.7692 8.18943C13.859 7.80924 11.8789 8.00407 10.0794 8.74928C8.27996 9.4945 6.74188 10.7566 5.65974 12.376C4.5776 13.9954 4 15.8994 4 17.8471C4 19.7948 4.5776 21.6987 5.65974 23.3181C6.74188 24.9375 8.27996 26.1997 10.0794 26.9449C11.8789 27.6901 13.859 27.8849 15.7692 27.5047C17.6795 27.1245 19.434 26.1864 20.8111 24.809L22.2152 23.4048L19.4305 20.62L18.0243 22.0242C17.1981 22.8507 16.1454 23.4135 14.9992 23.6417C13.8531 23.8698 12.6651 23.7529 11.5854 23.3058C10.5057 22.8586 9.58283 22.1014 8.93354 21.1297C8.28426 20.1581 7.9377 19.0157 7.9377 17.8471C7.9377 16.6785 8.28426 15.5361 8.93354 14.5644C9.58283 13.5928 10.5057 12.8355 11.5854 12.3884C12.6651 11.9413 13.8531 11.8244 14.9992 12.0525C16.1454 12.2806 17.1981 12.8435 18.0243 13.6699V13.6699Z" fill="white"/>
</svg>
