<?xml version="1.0" encoding="UTF-8" standalone="no"?>
<svg width="36" height="34" viewBox="0 0 36 34" fill="none" xmlns="http://www.w3.org/2000/svg">
<path d="M1.67387 1.75757C0.637745 2.81546 0 4.26168 0 5.85856V24.2711C0 25.8249 0.617238 27.3151 1.71593 28.4138C2.81462 29.5125 4.30477 30.1297 5.85855 30.1297H17.5991C17.6845 29.7079 17.8401 29.2928 18.0678 28.8977L19.2897 26.782H5.85855C5.19264 26.782 4.55401 26.5174 4.08314 26.0466C3.61227 25.5757 3.34774 24.9371 3.34774 24.2711V8.36936H26.7819V10.4684C27.8527 10.0813 28.9971 9.94107 30.1297 10.0583V5.85856C30.1297 4.26168 29.4919 2.81546 28.4558 1.75757V1.67388H28.3721C27.278 0.599058 25.8049 -0.00219263 24.2711 6.00877e-06H5.85855C4.26168 6.00877e-06 2.81545 0.637751 1.75757 1.67388H1.67387V1.75757ZM28.8107 11.7171C29.3472 11.6676 29.8879 11.6924 30.4176 11.7908L27.654 16.5747C27.5162 16.7971 27.4244 17.0449 27.3841 17.3034C27.3439 17.5619 27.3559 17.8259 27.4196 18.0796C27.4834 18.3334 27.5974 18.5718 27.755 18.7806C27.9126 18.9895 28.1105 19.1645 28.3371 19.2954C28.5636 19.4263 28.8142 19.5103 29.0738 19.5425C29.3335 19.5747 29.5969 19.5545 29.8486 19.4829C30.1002 19.4113 30.335 19.2899 30.5388 19.1259C30.7427 18.9619 30.9115 18.7586 31.0353 18.5281L33.7988 13.7425C34.5558 14.6279 35.0318 15.7189 35.1659 16.8761C35.3 18.0332 35.0862 19.2041 34.5518 20.2392C34.0173 21.2743 33.1865 22.1267 32.1654 22.6874C31.1443 23.2481 29.9793 23.4918 28.819 23.3873L23.7455 32.1752C23.4219 32.7361 22.8887 33.1455 22.2632 33.3133C21.6378 33.481 20.9713 33.3935 20.4104 33.0699C19.8494 32.7462 19.4401 32.213 19.2723 31.5876C19.1045 30.9621 19.192 30.2956 19.5157 29.7347L24.5808 20.9636C23.9798 20.1247 23.611 19.1421 23.5117 18.1149C23.4125 17.0878 23.5863 16.0527 24.0156 15.1143C24.4448 14.1759 25.1144 13.3675 25.9564 12.771C26.7984 12.1744 27.783 11.8109 28.8107 11.7171V11.7171ZM13.8965 12.1239C14.0081 12.2453 14.0947 12.3875 14.1513 12.5424C14.2079 12.6973 14.2334 12.8618 14.2264 13.0266C14.2194 13.1914 14.18 13.3532 14.1105 13.5027C14.041 13.6523 13.9426 13.7866 13.8212 13.8982L9.80889 17.5757L13.8212 21.2532C14.0667 21.4782 14.2127 21.7916 14.2271 22.1244C14.2416 22.4571 14.1232 22.782 13.8982 23.0275C13.6731 23.273 13.3597 23.419 13.027 23.4334C12.6942 23.4479 12.3693 23.3295 12.1239 23.1045L7.10224 18.5013C6.97387 18.3837 6.87136 18.2407 6.80123 18.0813C6.73111 17.922 6.69489 17.7498 6.69489 17.5757C6.69489 17.4016 6.73111 17.2294 6.80123 17.07C6.87136 16.9106 6.97387 16.7676 7.10224 16.65L12.1239 12.0469C12.2454 11.9354 12.3877 11.8489 12.5427 11.7924C12.6976 11.736 12.8622 11.7106 13.027 11.7177C13.1917 11.7249 13.3535 11.7644 13.503 11.8341C13.6524 11.9038 13.7867 12.0023 13.8982 12.1239H13.8965ZM18.8428 23.1045L22.224 20.0044C21.6795 18.4272 21.6748 16.7137 22.2106 15.1335L18.8428 12.0469C18.7212 11.9354 18.5789 11.849 18.4239 11.7926C18.269 11.7361 18.1044 11.7107 17.9397 11.7179C17.7749 11.725 17.6132 11.7646 17.4637 11.8342C17.3142 11.9039 17.1799 12.0023 17.0685 12.1239C16.957 12.2454 16.8706 12.3877 16.8142 12.5427C16.7577 12.6976 16.7323 12.8622 16.7395 13.027C16.7466 13.1917 16.7862 13.3535 16.8558 13.5029C16.9255 13.6524 17.0239 13.7867 17.1455 13.8982L21.1577 17.5757L17.1455 21.2532C16.9 21.4782 16.7539 21.7916 16.7395 22.1244C16.7251 22.4571 16.8434 22.782 17.0685 23.0275C17.2935 23.273 17.6069 23.419 17.9397 23.4334C18.2724 23.4479 18.5973 23.3295 18.8428 23.1045V23.1045Z" fill="white"/>
</svg>
