<?xml version="1.0" encoding="UTF-8" standalone="no"?>
<svg width="36" height="37" viewBox="0 0 36 37" fill="none" xmlns="http://www.w3.org/2000/svg">
<path d="M35.385 5.2675C35.003 4.21698 34.3954 3.26295 33.605 2.47253C32.8146 1.68211 31.8605 1.07452 30.81 0.6925C28.845 0.0625 27.06 0.0625 23.43 0.0625H12.54C8.94 0.0625 7.125 0.0625 5.19 0.6625C4.13796 1.04611 3.18296 1.656 2.39244 2.44911C1.60193 3.24222 0.995162 4.19921 0.615 5.2525C0 7.2025 0 9.0025 0 12.6025V23.5075C0 27.1225 0 28.9075 0.6 30.8575C0.982016 31.908 1.58961 32.8621 2.38003 33.6525C3.17045 34.4429 4.12448 35.0505 5.175 35.4325C7.125 36.0475 8.925 36.0475 12.525 36.0475H23.445C27.06 36.0475 28.86 36.0475 30.795 35.4475C31.8498 35.0658 32.8078 34.4567 33.601 33.6635C34.3942 32.8703 35.0032 31.9123 35.385 30.8575C36 28.9075 36 27.1075 36 23.5075V12.6325C36 9.0175 36 7.2175 35.385 5.2675V5.2675ZM26.13 12.2125L24.735 13.6075C24.5991 13.734 24.421 13.8055 24.2354 13.8083C24.0497 13.811 23.8697 13.7448 23.73 13.6225C22.379 12.4816 20.6683 11.8547 18.9 11.8525C17.445 11.8525 15.99 12.3325 15.99 13.6675C15.99 15.0175 17.55 15.4675 19.35 16.1425C22.5 17.1925 25.11 18.5125 25.11 21.6025C25.11 24.9625 22.5 27.2725 18.24 27.5275L17.85 29.3275C17.8155 29.4929 17.7251 29.6414 17.594 29.7479C17.4628 29.8545 17.299 29.9126 17.13 29.9125H14.445L14.31 29.8975C14.1178 29.8544 13.9503 29.7374 13.8437 29.5718C13.737 29.4062 13.6998 29.2053 13.74 29.0125L14.16 27.1075C12.5433 26.7022 11.0566 25.8917 9.84 24.7525V24.7375C9.77288 24.6706 9.71962 24.5911 9.68328 24.5036C9.64694 24.4161 9.62823 24.3223 9.62823 24.2275C9.62823 24.1327 9.64694 24.0389 9.68328 23.9514C9.71962 23.8639 9.77288 23.7844 9.84 23.7175L11.34 22.2625C11.4762 22.1349 11.6559 22.0639 11.8425 22.0639C12.0291 22.0639 12.2088 22.1349 12.345 22.2625C13.71 23.5525 15.54 24.2725 17.43 24.2425C19.38 24.2425 20.685 23.4175 20.685 22.1125C20.685 20.8075 19.365 20.4625 16.875 19.5325C14.235 18.5875 11.73 17.2525 11.73 14.1325C11.73 10.5025 14.745 8.7325 18.315 8.5675L18.69 6.7225C18.7249 6.55853 18.8159 6.41187 18.9473 6.30781C19.0788 6.20376 19.2424 6.14883 19.41 6.1525H22.08L22.23 6.1675C22.62 6.2575 22.875 6.6325 22.785 7.0225L22.38 9.0775C23.73 9.5275 25.005 10.2325 26.1 11.1625L26.13 11.1925C26.415 11.4925 26.415 11.9425 26.13 12.2125V12.2125Z" fill="white"/>
</svg>
